<svg width="89" height="16" viewBox="0 0 89 16" fill="none" data-testid="cazoo-logo" class="sc-1mzrdyc-0 cazoo-header__sc-usrcw5-10 nPNUS lefYLL"><path fill-rule="evenodd" clip-rule="evenodd" d="M8.257.04c1.457 0 2.882.357 4.12 1.032a.774.774 0 0 1 .272 1.12l-1.367 1.98c-.144.18-.311.272-.498.272a.747.747 0 0 1-.395-.13c-.56-.352-1.044-.582-1.729-.64a4.234 4.234 0 0 0-.355-.016c-2.358 0-4.361 1.998-4.374 4.361.013 2.365 2.016 4.363 4.374 4.363a4.35 4.35 0 0 0 2.254-.624.594.594 0 0 1 .308-.087c.187 0 .354.087.459.24l1.324 1.937c.123.18.164.405.113.618a.783.783 0 0 1-.386.502A8.629 8.629 0 0 1 8.257 16C3.627 16 0 12.508 0 8.05v-.06C0 3.532 3.627.04 8.257.04Zm72.105.02a7.96 7.96 0 1 1 0 15.92 7.96 7.96 0 0 1 0-15.92Zm-19.208 0a7.96 7.96 0 1 1 0 15.92 7.96 7.96 0 0 1 0-15.92ZM26.536.073c2.716 0 3.342 2.397 3.554 2.813l.964 2.064.479 1.083.225.447.07-.358c.109-.455.48-.483.622-.483l1.453.21c.267.016.41.112.451.297l.288.83c.041.29-.11.45-.383.466l-1.755.216c.193.176.445.55.445 1.345 0 1.648.002 3.518.003 4.57v.193h-.006v1.169c0 .571-.463 1.035-1.035 1.035H30.06a1.035 1.035 0 0 1-1.035-1.035v-1.17h-.002l.002-1.08a.208.208 0 0 0-.208-.207l-4.466.002h-.088l-4.067-.002a.208.208 0 0 0-.208.207l.002 1.08h-.002v1.17c0 .571-.463 1.035-1.035 1.035H17.1a1.035 1.035 0 0 1-1.035-1.035v-1.17h-.007c.002-.82.003-2.311.004-3.788v-.974c0-.795.252-1.17.445-1.345l-1.755-.216c-.274-.016-.425-.177-.383-.467l.287-.829c.041-.185.185-.281.452-.298l1.453-.209c.142 0 .513.028.621.483l.071.358.226-.447.478-1.083.964-2.064c.212-.416.838-2.813 3.554-2.813h4.061ZM49.259 0c.575 0 1.041.466 1.041 1.041v1.75c0 .295-.125.562-.324.751l-7.487 8.581h6.77c.575 0 1.041.466 1.041 1.041v1.75c0 .575-.466 1.04-1.041 1.04H37.846a1.041 1.041 0 0 1-1.041-1.04v-1.75c0-.293.122-.557.317-.746l-.013-.011 7.483-8.576H38.16a1.041 1.041 0 0 1-1.041-1.04V1.04C37.12.466 37.586 0 38.16 0H49.26Zm31.103 4.005a4.02 4.02 0 0 0-4.016 4.015 4.02 4.02 0 0 0 4.016 4.016 4.02 4.02 0 0 0 4.015-4.016 4.02 4.02 0 0 0-4.015-4.015Zm-19.208 0a4.02 4.02 0 0 0-4.016 4.015 4.02 4.02 0 0 0 4.016 4.015 4.02 4.02 0 0 0 4.015-4.015 4.02 4.02 0 0 0-4.015-4.015Zm-34.99-.074h-3.317c-.35.002-.448.42-.523.637-.056.171-1.405 3.48-1.462 3.648 0 .003-.164.372.021.372h7.245c.185 0 .021-.37.02-.372-.056-.169-1.405-3.477-1.461-3.648-.076-.217-.173-.635-.523-.637Z" fill="#fff"></path></svg>